<svg id="hero-img_ttl.svg" xmlns="http://www.w3.org/2000/svg" width="1999.782" height="111.59" viewBox="0 0 1999.782 111.59">
  <defs>
    <style>
      .cls-1 {
        fill: #131313;
        fill-rule: evenodd;
      }
    </style>
  </defs>
  <path id="NINTENDO_SWITCH_サポート" data-name="NINTENDO SWITCH サポート" class="cls-1" d="M202.272,1015.87H180.489v55.52L139,1015.87H118.2v91.02h21.718v-55.52l41.486,55.52h20.873v-91.02Zm51.253,0H231.806v91.02h21.719v-91.02Zm113.6,0H345.344v55.52l-41.485-55.52H283.051v91.02h21.718v-55.52l41.486,55.52h20.873v-91.02Zm98.525,0H390.03v20.15h26.985v70.87h21.718v-70.87h26.92v-20.15Zm92.605,71.45H510.27v-16.64H555.2v-19.51H510.27v-15.73H558v-19.57H488.552v91.02h69.706v-19.57Zm111.918-71.45H648.393v55.52l-41.486-55.52H586.1v91.02h21.718v-55.52l41.486,55.52h20.872v-91.02Zm29.535,0v91.02h38.95c28.481,0,47.273-18.07,47.273-45.51s-18.792-45.51-47.273-45.51h-38.95Zm38.5,20.09c16.906,0,25.034,10.53,25.034,25.42,0,14.69-8.128,25.42-25.034,25.42H721.429v-50.84h16.777Zm117.706-21.78c-28.091,0-47.988,20.02-47.988,47.2s19.9,47.2,47.988,47.2,47.988-20.03,47.988-47.2S884,1014.18,855.912,1014.18Zm0,20.8c14.825,0,25.359,10.79,25.359,26.4s-10.534,26.39-25.359,26.39-25.36-10.79-25.36-26.39S841.086,1034.98,855.912,1034.98Zm189.628-11.12c-13.79-7.6-24.45-9.62-36.74-9.62-21.262,0-36.348,11.18-36.673,28.87-0.325,16.38,9.819,24.83,28.543,27.76l4.55,0.72c11.9,1.82,18.02,3.38,18.02,8.84,0,5.65-6.25,8.45-14.44,8.45-12.809,0-22.433-4.81-29.39-9.56l-10.859,17.69c10.078,7.6,24.9,11.57,40.059,11.57,19.5,0,38.17-9.04,38.17-30.69,0-14.89-11.12-23.14-28.81-26.2l-3.77-.65c-10.08-1.75-18.729-3.12-18.729-8.84,0-5.4,6.049-8.19,14.309-8.19a50.692,50.692,0,0,1,26.07,7.67Zm159.58-7.99h-22.11l-17.36,65.34-18.21-65.34h-23.47l-18.21,65.21-17.36-65.21h-22.43l26.53,91.02h25.88l17.16-58.71,17.17,58.71h25.88Zm44.23,0h-21.71v91.02h21.71v-91.02Zm98.52,0h-75.62v20.15h26.98v70.87h21.72v-70.87h26.92v-20.15Zm67.05-1.69c-28.09,0-47.92,19.63-47.92,47.2s19.83,47.2,47.92,47.2c17.43,0,31.28-7.74,39.6-20.16l-17.81-12.61c-5.21,7.74-12.75,11.96-21.98,11.96-13.46,0-25.1-9.49-25.1-26.39,0-15.61,10.66-26.4,25.03-26.4a24.331,24.331,0,0,1,21.66,12.03l19.05-10.92C1447.63,1022.3,1432.28,1014.18,1414.92,1014.18Zm87.34,1.69h-21.72v91.02h21.72V1071h38.3v35.89h21.72v-91.02h-21.72v35.04h-38.3v-35.04Zm193.9-5.97v21.3h-24.72v-20.48h-20.61v20.48h-18.95v17.66h18.95v30.72h20.61v-30.72h24.72c-0.12,30.96-6.12,41.2-29.2,49.44l12.95,15.77c28.61-11.77,36.61-26.01,36.97-65.21h20.48V1031.2h-20.48v-21.3h-20.72Zm127.73,19.07v-19.78h-20.48v19.78h-39.2v17.65h39.2v68.51h20.48v-68.51h36.97v-14.59c6.94-1.77,11.53-7.3,11.53-14.13a14.36,14.36,0,0,0-28.72-.11,14.085,14.085,0,0,0,5.18,11.18h-24.96Zm34.14-17.54a6.475,6.475,0,1,1-6.47,6.47A6.607,6.607,0,0,1,1858.03,1011.43Zm-80.87,98.87c8.36-11.53,14.83-30.48,18.13-52.38l-19.19-4.82c-2.47,16.48-8.48,32.96-16.48,44.26Zm90.64-11.77a161.3,161.3,0,0,1-19.54-46.61l-18.83,5.89c3.88,18,12.59,39.9,20.36,51.67Zm25.2-47.43v19.42h101.24V1051.1H1893Zm149.87-41.55v104.52h20.72v-54.15a447.412,447.412,0,0,1,44.38,19.31l10.01-18.36c-14.84-7.07-32.5-13.78-54.39-20.37v-30.95h-20.72Z" transform="translate(-118.188 -1003.53)"/>
</svg>
