<svg xmlns="http://www.w3.org/2000/svg" width="140" height="140" viewBox="0 0 140 140">
  <defs>
    <style>
      .a {
        fill: #fff;
        fill-rule: evenodd;
      }
    </style>
  </defs>
  <title>switch-online</title>
  <path class="a" d="M29.605,97.563a8.9,8.9,0,1,0,9.029,8.9A8.964,8.964,0,0,0,29.605,97.563Zm0,14.4a5.5,5.5,0,1,1,5.312-5.5A5.407,5.407,0,0,1,29.605,111.958ZM54.622,86.334h13.8a.463.463,0,0,0,.463-.463V23.666a.462.462,0,0,0-.463-.462h-13.8A16.187,16.187,0,0,0,38.435,39.391V70.146A16.187,16.187,0,0,0,54.622,86.334Zm-11.1-46.943a11.1,11.1,0,0,1,11.1-11.1h9.172V81.245H54.622a11.1,11.1,0,0,1-11.1-11.1ZM54.2,48.078a5.935,5.935,0,1,0-5.935-5.935A5.935,5.935,0,0,0,54.2,48.078Zm44.95,60.806L90.829,98.106H87.463v16.711h3.379V103.674l8.895,11.143h2.96V98.106H99.148Zm2.416-38.738V39.391A16.187,16.187,0,0,0,85.377,23.2H75.611a.411.411,0,0,0-.411.411V85.871a.462.462,0,0,0,.462.463h9.715A16.187,16.187,0,0,0,101.564,70.146ZM87.689,64.308a6.383,6.383,0,1,1,6.383-6.383A6.383,6.383,0,0,1,87.689,64.308Zm33.687,37.056V98.106h-13.8v16.711h13.8v-3.259H111.167v-3.775h9.714v-3.094h-9.714v-3.324Zm-67,7.52L46.058,98.106H42.692v16.711h3.379V103.674l8.894,11.143h2.96V98.106H54.377Zm12-10.779H62.784v16.711H75.531v-3.259H66.374Zm12.641,16.711H82.6V98.106H79.014Z"/>
</svg>
