<svg xmlns="http://www.w3.org/2000/svg" xmlns:xlink="http://www.w3.org/1999/xlink" viewBox="0 0 46.6 34.1">
<style type="text/css">
	.st0{fill:#FFF;}
</style>
<g>
	<circle class="st0" cx="23.3" cy="29.3" r="4.6"/>
	<path class="st0" d="M34.2,23.5c-0.4,0-0.8-0.2-1.1-0.5c-0.1-0.1-0.3-0.3-0.4-0.4c-2.6-2.5-6.1-3.9-9.7-3.8c-3.6,0.1-7,1.6-9.5,4.2
		c-0.6,0.6-1.5,0.6-2.1,0c-0.6-0.6-0.6-1.5,0-2.1c3.1-3.2,7.2-5,11.6-5.1c4.4-0.1,8.6,1.5,11.8,4.6c0.2,0.2,0.3,0.3,0.5,0.5
		c0.6,0.6,0.5,1.5,0,2.1C34.9,23.4,34.6,23.5,34.2,23.5z"/>
	<path class="st0" d="M39.7,17.9c-0.4,0-0.8-0.2-1.1-0.5c-0.2-0.2-0.4-0.4-0.6-0.6c-4.1-3.9-9.5-6-15.1-5.9
		c-5.7,0.1-10.9,2.4-14.8,6.5c-0.6,0.6-1.5,0.6-2.1,0c-0.6-0.6-0.6-1.5,0-2.1c4.5-4.7,10.5-7.3,16.9-7.4c6.5-0.1,12.6,2.3,17.2,6.7
		c0.2,0.2,0.5,0.5,0.7,0.7c0.6,0.6,0.6,1.5,0,2.1C40.4,17.8,40,17.9,39.7,17.9z"/>
	<path class="st0" d="M1.5,12.3c-0.4,0-0.7-0.1-1-0.4c-0.6-0.6-0.6-1.5,0-2.1C6.3,3.6,14.2,0.2,22.6,0c8.4-0.2,16.5,2.9,22.6,8.8
		c0.3,0.3,0.6,0.6,1,1c0.6,0.6,0.6,1.5,0,2.1c-0.6,0.6-1.5,0.6-2.1,0c-0.3-0.3-0.6-0.6-0.9-0.9c-5.5-5.3-12.8-8.1-20.5-8
		C15,3.2,7.9,6.3,2.6,11.8C2.3,12.1,1.9,12.3,1.5,12.3z"/>
</g>
</svg>
