<svg xmlns="http://www.w3.org/2000/svg" width="256" height="256" viewBox="0 0 256 256">
  <defs>
    <style>
      .a {
        fill: #737373;
      }
    </style>
  </defs>
  <title>accessories</title>
  <path class="a" d="M229.56,168.676c-1.105-13.153-3.78-26.2-5.932-39.206-2.132-12.866-4.294-25.895-7.6-38.509-1.471-5.631-3.01-10.452-6.86-14.9a5.734,5.734,0,0,0-1.332-1.066c-1.036-1.619-2.073-5.666-3.1-7.3-5.172-7.807-16.612-9.9-25.1-10.971-4.728-.592-9.752-1.549-14.253.385-2.655,1.051-5.261,4.693-7.877,5.844-1.629-.035-3.247-0.064-4.846-0.1-13.671-.326-27.361-0.3-41.031-0.144-4.363.05-8.775,0.079-13.207,0.173C95.856,61.75,93.3,58.133,90.7,57.106c-4.51-1.935-9.535-.977-14.253-0.385-8.5,1.071-19.928,3.164-25.1,10.971-1.016,1.629-2.063,5.681-3.1,7.3a5.868,5.868,0,0,0-1.332,1.066,22.978,22.978,0,0,0-4.59,7.4c-4.284,12.219-6.258,25.386-8.528,38.094-2.32,12.95-4.689,26.009-6.4,39.057-1.471,11.306-3.257,25.48,5.913,34.205,3.938,3.751,9.525,6,14.963,4.876,6.268-1.293,10.028-6.209,13.088-11.43,3.109-5.3,5.745-10.852,8.439-16.375C72.335,166.7,75.2,159.6,81.584,158.455c3.563-.637,7.511-0.3,11.163-0.3h74.985c5.992,0,10.482.36,14.124,5.646,3.81,5.542,6.218,12.056,9.318,18,5.152,9.866,12.713,22.519,25.87,16.824C228.9,193.49,230.518,180.032,229.56,168.676ZM70.835,111.6a11.482,11.482,0,1,1,11.489-11.474A11.479,11.479,0,0,1,70.835,111.6Zm40.715,20.792v3.267a1.617,1.617,0,0,1-1.619,1.609q-3.924-.014-7.847-0.01a0.6,0.6,0,0,0-.562.3,0.8,0.8,0,0,0-.109.375c0,2.611.01,5.232,0.01,7.847a1.609,1.609,0,0,1-1.609,1.609H93.28a1.609,1.609,0,0,1-1.609-1.609c0-2.615.01-5.236,0.01-7.847a0.81,0.81,0,0,0-.109-0.375,0.576,0.576,0,0,0-.553-0.3q-3.938,0-7.856.01a1.609,1.609,0,0,1-1.609-1.609v-6.539a1.605,1.605,0,0,1,1.609-1.6q3.923,0.007,7.856.01a0.74,0.74,0,0,0,.336-0.094,0.589,0.589,0,0,0,.326-0.577c0-2.621-.01-5.232-0.01-7.852a1.609,1.609,0,0,1,1.609-1.609q3.272,0.008,6.534,0A1.609,1.609,0,0,1,101.423,119c0,2.62-.01,5.231-0.01,7.852a0.666,0.666,0,0,0,.671.671q3.924-.008,7.847-0.01a1.613,1.613,0,0,1,1.619,1.6v3.272Zm43.291,11.484a11.482,11.482,0,1,1,11.479-11.484A11.484,11.484,0,0,1,154.841,143.872Zm12.111-36.215a7.541,7.541,0,1,1,7.541-7.541A7.54,7.54,0,0,1,166.952,107.657Zm15.951,13.8a7.538,7.538,0,1,1,7.541-7.536A7.539,7.539,0,0,1,182.9,121.456Zm0-27.6a7.541,7.541,0,1,1,7.541-7.541A7.541,7.541,0,0,1,182.9,93.854Zm15.941,13.8a7.541,7.541,0,1,1,7.541-7.541A7.532,7.532,0,0,1,198.844,107.657Z"/>
</svg>
