<svg xmlns="http://www.w3.org/2000/svg" width="256" height="256" viewBox="0 0 256 256">
  <defs>
    <style>
      .a {
        fill: #3c3c3c;
      }
    </style>
  </defs>
  <title>caution</title>
  <path class="a" d="M246.2,127.406L128.594,9.8a0.842,0.842,0,0,0-1.188,0L9.8,127.406a0.843,0.843,0,0,0,0,1.188L127.406,246.2a0.843,0.843,0,0,0,1.188,0L246.2,128.594A0.843,0.843,0,0,0,246.2,127.406ZM117.521,70.391h20.958a1.315,1.315,0,0,1,1.314,1.353l-2.552,77.8a1.315,1.315,0,0,1-1.314,1.276H120.073a1.315,1.315,0,0,1-1.314-1.276l-2.552-77.8A1.315,1.315,0,0,1,117.521,70.391ZM128,189.8a12.1,12.1,0,1,1,12.1-12.1A12.1,12.1,0,0,1,128,189.8Z"/>
</svg>
