<svg xmlns="http://www.w3.org/2000/svg" width="256" height="256" viewBox="0 0 256 256">
  <defs>
    <style>
      .a {
        fill: #e60012;
      }
    </style>
  </defs>
  <title>controller</title>
  <path class="a" d="M176.765,48.9l24.97,24.972a38.168,38.168,0,0,1,0,53.917l-73.947,73.942a38.125,38.125,0,0,1-53.917,0L48.9,176.758,176.765,48.9m0-19.385a1,1,0,0,0-.707.293L29.807,176.051a1,1,0,0,0,0,1.414l34.162,34.164a52.125,52.125,0,0,0,73.716,0l73.947-73.942a52.125,52.125,0,0,0,0-73.716L177.472,29.81a1,1,0,0,0-.707-0.293h0ZM130.156,158.735v-0.463a17.325,17.325,0,0,0-17.325-17.325h-0.463a17.325,17.325,0,0,0-17.325,17.325v0.463a17.325,17.325,0,0,0,17.325,17.325h0.463A17.325,17.325,0,0,0,130.156,158.735Zm20.064-49.344h0a9.029,9.029,0,0,0,9.029-9.029h0a9.029,9.029,0,0,0-9.029-9.029h0a9.029,9.029,0,0,0-9.029,9.029h0A9.029,9.029,0,0,0,150.22,109.391Zm25.081,0h0a9.029,9.029,0,0,0,9.029-9.029h0a9.029,9.029,0,0,0-9.029-9.029h0a9.029,9.029,0,0,0-9.029,9.029h0A9.029,9.029,0,0,0,175.3,109.392Zm-25.081,25.081h0a9.029,9.029,0,0,0,9.029-9.029h0a9.029,9.029,0,0,0-9.029-9.029h0a9.029,9.029,0,0,0-9.029,9.029h0A9.029,9.029,0,0,0,150.221,134.473Zm25.081,0h0a9.029,9.029,0,0,0,9.029-9.029h0a9.029,9.029,0,0,0-9.029-9.029h0a9.029,9.029,0,0,0-9.029,9.029h0A9.029,9.029,0,0,0,175.3,134.472Z"/>
</svg>
