<svg xmlns="http://www.w3.org/2000/svg" width="256" height="256" viewBox="0 0 256 256">
  <defs>
    <style>
      .a {
        fill: #737373;
      }
    </style>
  </defs>
  <title>eshop</title>
  <path class="a" d="M202.93,93.031L210.392,208.7H45.608L53.071,93.031H202.93m13.126-14H39.945L30.676,222.7H225.324L216.055,79.031h0Zm-47.35,40.631V65.891A28.066,28.066,0,0,0,140.64,37.825H115.36A28.066,28.066,0,0,0,87.294,65.891v53.771a1,1,0,0,0,1,1h12a1,1,0,0,0,1-1V65.891A14.066,14.066,0,0,1,115.36,51.825H140.64a14.066,14.066,0,0,1,14.066,14.066v53.771a1,1,0,0,0,1,1h12A1,1,0,0,0,168.706,119.662Z"/>
</svg>
