<svg xmlns="http://www.w3.org/2000/svg" width="256" height="256" viewBox="0 0 256 256">
  <defs>
    <style>
      .a {
        fill: #737373;
      }
    </style>
  </defs>
  <title>friends</title>
  <path class="a" d="M208,51.762a6.08,6.08,0,0,1,6,6V198.238a6.08,6.08,0,0,1-6,6H48a6.08,6.08,0,0,1-6-6V57.762a6.08,6.08,0,0,1,6-6H208m0-14H48a20.059,20.059,0,0,0-20,20V198.238a20.059,20.059,0,0,0,20,20H208a20.059,20.059,0,0,0,20-20V57.762a20.059,20.059,0,0,0-20-20h0ZM105.73,90.051h-14a1,1,0,0,0-1,1v30a1,1,0,0,0,1,1h14a1,1,0,0,0,1-1v-30A1,1,0,0,0,105.73,90.051Zm58.535,0h-14a1,1,0,0,0-1,1v30a1,1,0,0,0,1,1h14a1,1,0,0,0,1-1v-30A1,1,0,0,0,164.264,90.051Zm-1.317,56.433a0.991,0.991,0,0,0-1.214.658c-2.181,6.972-9.573,20.94-33.728,20.94-24.182,0-31.571-13.976-33.748-20.951a0.991,0.991,0,0,0-1.214-.659l-10.61,2.906a1,1,0,0,0-.7,1.247c4.5,14.907,18.9,30.457,46.274,30.457,27.351,0,41.74-15.541,46.252-30.438a1,1,0,0,0-.7-1.247Z"/>
</svg>
