<svg xmlns="http://www.w3.org/2000/svg" width="256" height="256" viewBox="0 0 256 256">
  <defs>
    <style>
      .a {
        fill: #e60012;
      }
    </style>
  </defs>
  <title>internet</title>
  <path class="a" d="M128,28A100,100,0,1,0,228,128,100,100,0,0,0,128,28Zm0,184-0.065,0A117.356,117.356,0,0,1,105.3,179.666h45.387A117.355,117.355,0,0,1,128.053,212H128Zm-27.779-45.334A122.858,122.858,0,0,1,94.643,134.5h66.7a122.858,122.858,0,0,1-5.578,32.166H100.221ZM128,44h0.053a117.355,117.355,0,0,1,22.634,32.333H105.3A117.356,117.356,0,0,1,127.935,44Zm27.767,45.334a122.858,122.858,0,0,1,5.578,32.166h-66.7a122.858,122.858,0,0,1,5.578-32.166h55.547ZM81.635,121.5H44.276a83.346,83.346,0,0,1,9.189-32.166H86.592A138.211,138.211,0,0,0,81.635,121.5Zm-37.359,13H81.635a138.211,138.211,0,0,0,4.957,32.166H53.466A83.346,83.346,0,0,1,44.276,134.5Zm130.077,0h37.371a83.346,83.346,0,0,1-9.189,32.166H169.4A138.211,138.211,0,0,0,174.353,134.5Zm0-13A138.211,138.211,0,0,0,169.4,89.334h33.138a83.346,83.346,0,0,1,9.189,32.166H174.353Zm19.806-45.166h-29.23a124.153,124.153,0,0,0-17.6-30.065A84.139,84.139,0,0,1,194.159,76.334Zm-85.5-30.062a124.155,124.155,0,0,0-17.6,30.062H61.841A84.14,84.14,0,0,1,108.658,46.273ZM61.841,179.666H91.06a124.155,124.155,0,0,0,17.6,30.062A84.14,84.14,0,0,1,61.841,179.666Zm85.487,30.065a124.153,124.153,0,0,0,17.6-30.065h29.23A84.139,84.139,0,0,1,147.327,209.731Z"/>
</svg>
