<svg xmlns="http://www.w3.org/2000/svg" width="256" height="256" viewBox="0 0 256 256">
  <defs>
    <style>
      .a {
        fill: #737373;
      }
    </style>
  </defs>
  <title>parentalcontrols</title>
  <path class="a" d="M178.148,228h11a1,1,0,0,0,1-1V157.76h-5.286a23,23,0,1,0-25.428,0h-5.286V227a1,1,0,0,0,1,1h11a1,1,0,0,0,1-1V204h10v23A1,1,0,0,0,178.148,228Z"/>
  <rect class="a" x="122.148" y="157.76" width="100" height="13" rx="1" ry="1"/>
  <path class="a" d="M220.183,87.334H153.826a35.5,35.5,0,1,0-52.617,0H34.852a1,1,0,0,0-1,1v43a1,1,0,0,0,1,1H88.517V226.9a1,1,0,0,0,1,1h54.676c-0.024-.3-0.045-0.594-0.045-0.9V214.9h-12v-31a1,1,0,0,0-1-1h-8a1,1,0,0,0-1,1v31H101.517V120.334a1,1,0,0,0-1-1H46.852v-19H208.183v19h-9.264a32.831,32.831,0,0,1,5.626,13h15.638a1,1,0,0,0,1-1v-43A1,1,0,0,0,220.183,87.334ZM127.518,41a22.5,22.5,0,1,1-22.5,22.5A22.526,22.526,0,0,1,127.518,41Z"/>
</svg>
