<svg xmlns="http://www.w3.org/2000/svg" width="256" height="256" viewBox="0 0 256 256">
  <defs>
    <style>
      .a {
        fill: #8c8c8c;
      }
    </style>
  </defs>
  <title>mode_icon</title>
  <path class="a" d="M232.492,72H215.163a1.986,1.986,0,0,0-.43.05V72H41.36v0.077A1.935,1.935,0,0,0,40.837,72H23.508A23.5,23.5,0,0,0,0,95.487V159.51A23.5,23.5,0,0,0,23.508,183H40.837a1.947,1.947,0,0,0,.523-0.081V183H214.733v-0.05a1.986,1.986,0,0,0,.43.05h17.329A23.5,23.5,0,0,0,256,159.51V95.487A23.5,23.5,0,0,0,232.492,72ZM24.918,90.586a9.821,9.821,0,1,1-9.834,9.821A9.827,9.827,0,0,1,24.918,90.586Zm4.441,34a4.441,4.441,0,1,1-4.441-4.44A4.438,4.438,0,0,1,29.358,124.582Zm-12.92,12.908a4.437,4.437,0,1,1,4.437-4.437A4.439,4.439,0,0,1,16.439,137.489Zm8.479,8.474a4.436,4.436,0,1,1,4.441-4.437A4.441,4.441,0,0,1,24.918,145.964Zm8.483-8.474a4.437,4.437,0,1,1,4.44-4.437A4.439,4.439,0,0,1,33.4,137.489Zm172.854,33.446H49.839V84.06H206.254v86.875ZM231.086,87.5a4.437,4.437,0,1,1-4.444,4.437A4.44,4.44,0,0,1,231.086,87.5Zm4.437,21.382a4.441,4.441,0,1,1-4.437-4.432A4.441,4.441,0,0,1,235.523,108.879ZM218.159,100.4a4.443,4.443,0,1,1,4.441,4.44A4.44,4.44,0,0,1,218.159,100.4Zm12.923,42.469a9.821,9.821,0,1,1,9.834-9.825A9.825,9.825,0,0,1,231.083,142.873Zm8.482-38.028A4.437,4.437,0,1,1,244,100.4,4.439,4.439,0,0,1,239.565,104.845Z"/>
</svg>
