<svg xmlns="http://www.w3.org/2000/svg" width="256" height="256" viewBox="0 0 256 256">
  <defs>
    <style>
      .a {
        fill: #e60012;
      }
    </style>
  </defs>
  <title>mode_icon</title>
  <path class="a" d="M115.391,172.3H5.555A0.555,0.555,0,0,0,5,172.85v18.673A23.476,23.476,0,0,0,28.474,215h63.99a23.483,23.483,0,0,0,23.482-23.484V172.85A0.555,0.555,0,0,0,115.391,172.3Zm-49.363,7.5a4.437,4.437,0,1,1-4.438,4.435A4.436,4.436,0,0,1,66.028,179.8ZM33.4,203.47a9.819,9.819,0,1,1,9.812-9.821A9.816,9.816,0,0,1,33.4,203.47Zm23.211-5.383a4.438,4.438,0,1,1,4.438-4.434A4.435,4.435,0,0,1,56.607,198.088Zm9.421,9.419a4.438,4.438,0,1,1,4.434-4.438A4.441,4.441,0,0,1,66.028,207.506Zm9.41-9.419a4.438,4.438,0,1,1,4.438-4.434A4.437,4.437,0,0,1,75.438,198.088ZM250.445,172.3H140.609a0.555,0.555,0,0,0-.555.555v18.666A23.483,23.483,0,0,0,163.536,215h63.99A23.475,23.475,0,0,0,251,191.523V172.85A0.555,0.555,0,0,0,250.445,172.3Zm-60.468,31.173a9.819,9.819,0,1,1,9.816-9.817A9.815,9.815,0,0,1,189.977,203.468Zm23.213-5.375c-2.449,0-3.494-1.989-3.494-4.442s1.045-4.434,3.494-4.434A4.438,4.438,0,0,1,213.191,198.093Zm9.41,9.412a4.437,4.437,0,1,1,4.438-4.435A4.436,4.436,0,0,1,222.6,207.505Zm0-18.83a4.438,4.438,0,1,1,4.442-4.438A4.437,4.437,0,0,1,222.6,188.675Zm9.421,9.418a4.438,4.438,0,1,1,4.438-4.442A4.441,4.441,0,0,1,232.022,198.093Zm-5.207-64.619a3.081,3.081,0,0,0,2.888-4.152L212.949,84.155l-6.91,49.32h20.776ZM27.974,145.41h168.61a1.877,1.877,0,0,0,1.858-1.616L212.728,42.138A1.877,1.877,0,0,0,210.869,40H42.259A1.876,1.876,0,0,0,40.4,41.616L26.115,143.272A1.877,1.877,0,0,0,27.974,145.41ZM53.76,52.056H196.508l-11.424,81.3H42.335Z"/>
</svg>
