<svg xmlns="http://www.w3.org/2000/svg" width="256" height="256" viewBox="0 0 256 256">
  <defs>
    <style>
      .a {
        fill: #e60012;
      }
    </style>
  </defs>
  <title>mode_icon</title>
  <path class="a" d="M188.064,154.666a23.457,23.457,0,0,0-23.483-23.436H154.456a1.916,1.916,0,0,0-1.918,1.914V240.074a1.914,1.914,0,0,0,1.918,1.914h10.125a23.457,23.457,0,0,0,23.483-23.436V154.666ZM170.3,147.985a3.985,3.985,0,1,1-3.984,3.987A3.992,3.992,0,0,1,170.3,147.985Zm4,19.206a3.991,3.991,0,1,1-4-3.983A3.988,3.988,0,0,1,174.3,167.191Zm-15.609-7.611a3.991,3.991,0,1,1,3.991,3.983A3.987,3.987,0,0,1,158.687,159.579Zm11.618,41.4a8.819,8.819,0,1,1,8.833-8.819A8.824,8.824,0,0,1,170.3,200.975Zm7.626-37.413a3.983,3.983,0,1,1,3.991-3.983A3.989,3.989,0,0,1,177.931,163.562ZM101.6,131.231H91.472a23.457,23.457,0,0,0-23.483,23.436v63.886a23.457,23.457,0,0,0,23.483,23.436H101.6a1.92,1.92,0,0,0,1.926-1.914V133.145A1.923,1.923,0,0,0,101.6,131.231ZM85.756,150.758a8.821,8.821,0,1,1-8.841,8.82A8.832,8.832,0,0,1,85.756,150.758Zm3.991,33.787a3.991,3.991,0,1,1-3.991-3.983A3.988,3.988,0,0,1,89.747,184.545ZM78.129,196.139a3.983,3.983,0,1,1,3.992-3.979A3.984,3.984,0,0,1,78.129,196.139Zm7.627,7.611a3.985,3.985,0,1,1,3.991-3.983A3.987,3.987,0,0,1,85.756,203.751Zm7.619-7.611a3.983,3.983,0,1,1,4-3.979A3.982,3.982,0,0,1,93.375,196.139Zm51.107-64.909h-32.9a2.024,2.024,0,0,0-2.026,2.022V239.966a2.022,2.022,0,0,0,2.026,2.023h32.9a2.022,2.022,0,0,0,2.026-2.023V133.253A2.024,2.024,0,0,0,144.482,131.231ZM61.933,154.124a27.9,27.9,0,0,1,.549-5.492c-0.588.656-1.161,1.332-1.686,2.042a48.543,48.543,0,0,0-6,11.66c-1.075,2.829-1.988,5.72-2.792,8.638-0.6,2.154-1.2,4.566-1.686,6.743l-5.205,23.2c-0.4,1.822-.742,3.655-1.06,5.5-0.41,2.324-.7,4.666-0.92,7.017a63.676,63.676,0,0,0-.3,7.09,38.032,38.032,0,0,0,.642,7.005,24.039,24.039,0,0,0,2.235,6.665,13.968,13.968,0,0,0,4.734,5.226,13.351,13.351,0,0,0,6.458,2.026c0.247,0.012.5,0.015,0.751,0.015a13.208,13.208,0,0,0,6.613-1.88,18.606,18.606,0,0,0,4.285-3.6,27.661,27.661,0,0,1-6.613-17.97V154.124Zm150.013,52.83c-0.325-1.841-.657-3.675-1.068-5.5l-5.2-23.2c-0.495-2.177-1.1-4.589-1.686-6.743-0.8-2.918-1.717-5.809-2.792-8.638a48.564,48.564,0,0,0-6-11.66c-0.526-.71-1.1-1.386-1.694-2.042a27.349,27.349,0,0,1,.549,5.492v63.886a27.7,27.7,0,0,1-6.606,17.97,18.6,18.6,0,0,0,4.285,3.6A13.156,13.156,0,0,0,198.34,242c0.255,0,.5,0,0.758-0.016a13.371,13.371,0,0,0,6.459-2.026,13.952,13.952,0,0,0,4.726-5.226,23.814,23.814,0,0,0,2.235-6.665,37.409,37.409,0,0,0,.65-7.006,65.715,65.715,0,0,0-.3-7.09C212.642,211.62,212.348,209.278,211.946,206.954ZM235.024,48.2h-78.6a0.766,0.766,0,0,0-.759.773v59.507a0.766,0.766,0,0,0,.767.765h78.8a0.766,0.766,0,0,0,.766-0.765V49.195A0.988,0.988,0,0,0,235.024,48.2Zm-5.312,10.662h-67.76V53.523h67.76v5.339ZM71.818,101.034H47.451v8.32h64.123v-8.32H87.207V90.795h51.176a0.642,0.642,0,0,0,.641-0.64V14.64a0.643,0.643,0,0,0-.641-0.64H20.641a0.642,0.642,0,0,0-.641.64V90.155a0.642,0.642,0,0,0,.641.64H71.818v10.239ZM28.336,82.475V22.319H130.689V82.475H28.336ZM50.655,44.042h8.906V67.386h7.167V44.042h8.883V37.4H50.655v6.639ZM96.2,60.019L88.392,37.4H80.774L91.89,67.386h8.541L111.524,37.4h-7.466Zm31.014,40.862V96.117h-5.3v4.764a8.264,8.264,0,0,0,8.262,8.246H150.33v-5.293H130.177A2.96,2.96,0,0,1,127.217,100.881Z"/>
</svg>
