<svg xmlns="http://www.w3.org/2000/svg" width="256" height="256" viewBox="0 0 256 256">
  <defs>
    <style>
      .a {
        fill: none;
      }

      .b {
        fill: #2d2d2d;
      }
    </style>
  </defs>
  <title>power_charging_finished</title>
  <polyline class="a" points="0 256 0 0 256 0 256 256"/>
  <circle class="b" cx="71.758" cy="82"/>
  <path class="b" d="M231,108H216V73a1,1,0,0,0-1-1H25a1,1,0,0,0-1,1V183a1,1,0,0,0,1,1H215a1,1,0,0,0,1-1V148h15a1,1,0,0,0,1-1V109A1,1,0,0,0,231,108Zm-29,62H38V86H202v84Z"/>
  <path class="b" d="M49,97v62H191V97H49Zm86.825,27.921-21.116,31.7a0.332,0.332,0,0,1-.276.148h-3a0.332,0.332,0,0,1-.324-0.4l5.5-24.765H104.452a0.332,0.332,0,0,1-.276-0.517l21.116-31.7a0.332,0.332,0,0,1,.276-0.148h3a0.332,0.332,0,0,1,.324.4l-5.5,24.765h12.155A0.332,0.332,0,0,1,135.825,124.921Z"/>
</svg>
