<svg xmlns="http://www.w3.org/2000/svg" width="256" height="256" viewBox="0 0 256 256">
  <defs>
    <style>
      .a {
        fill: #737373;
      }
    </style>
  </defs>
  <title>power</title>
  <g>
    <path class="a" d="M254.437,122.459H233.872l9.3-41.716a.56.56,0,0,0-.549-.681H237.55a.563.563,0,0,0-.468.249L201.357,133.7a.56.56,0,0,0,.468.87h20.565l-9.3,41.716a.56.56,0,0,0,.549.681h5.078a.563.563,0,0,0,.468-.249L254.9,123.329A.56.56,0,0,0,254.437,122.459Z"/>
    <path class="a" d="M186.339,110.143h-13.43V78.893a.894.894,0,0,0-.9-.893H1.9a.894.894,0,0,0-.9.893v98.214a.894.894,0,0,0,.9.893H172.013a.894.894,0,0,0,.9-.893v-31.25h13.43a.894.894,0,0,0,.9-.893V111.036A.894.894,0,0,0,186.339,110.143ZM160.373,165.5H13.535v-75H160.373Z"/>
    <path class="a" d="M24.629,156.351h96.389a.89.89,0,0,0,.894-.887V100.537a.89.89,0,0,0-.894-.887H24.629a.89.89,0,0,0-.894.887v54.927A.89.89,0,0,0,24.629,156.351Z"/>
  </g>
</svg>
