<svg xmlns="http://www.w3.org/2000/svg" width="320" height="256" viewBox="0 0 320 256">
  <defs>
    <style>
      .a {
        fill: #2d2d2d;
      }

      .b {
        fill: #5aff0c;
      }

      .c {
        fill: none;
      }
    </style>
  </defs>
  <title>power charging start</title>
  <circle class="a" cx="71.758" cy="82"/>
  <rect class="b" x="49" y="97" width="112" height="62"/>
  <g>
    <path class="a" d="M231,108H216V73a1,1,0,0,0-1-1H25a1,1,0,0,0-1,1V183a1,1,0,0,0,1,1H215a1,1,0,0,0,1-1V148h15a1,1,0,0,0,1-1V109A1,1,0,0,0,231,108Zm-29,62H38V86H202v84Z"/>
    <path class="a" d="M295.445,122H275.163l9.177-41.325A0.555,0.555,0,0,0,283.8,80H278.79a0.554,0.554,0,0,0-.461.247l-35.235,52.891a0.555,0.555,0,0,0,.461.862h20.282l-9.177,41.325a0.554,0.554,0,0,0,.541.675h5.008a0.554,0.554,0,0,0,.461-0.247l35.235-52.891A0.555,0.555,0,0,0,295.445,122Z"/>
  </g>
  <rect class="c" width="320" height="256"/>
</svg>
