<svg xmlns="http://www.w3.org/2000/svg" width="256" height="256" viewBox="0 0 256 256">
  <defs>
    <style>
      .a {
        fill: #e60012;
      }

      .b {
        fill: none;
      }
    </style>
  </defs>
  <title>power-tb-icon</title>
  <path class="a" d="M222.784,165.828c-1.031-12.231-3.528-24.361-5.536-36.46-1.99-11.965-4.007-24.081-7.093-35.812-1.372-5.236-2.81-9.72-6.4-13.86a5.348,5.348,0,0,0-1.243-.991c-0.967-1.505-1.935-5.269-2.893-6.788-4.827-7.261-15.5-9.206-23.426-10.2-4.413-.55-9.1-1.441-13.3.358-2.478.978-4.91,4.365-7.351,5.434-1.52-.032-3.031-0.06-4.523-0.1-12.759-.3-25.535-0.275-38.293-0.133-4.072.046-8.19,0.074-12.326,0.161-2.4-1.046-4.781-4.411-7.2-5.365-4.209-1.8-8.9-.908-13.3-0.358-7.931,1-18.6,2.942-23.426,10.2C55.516,73.43,54.539,77.2,53.572,78.7a5.473,5.473,0,0,0-1.243.991,21.357,21.357,0,0,0-4.283,6.885c-4,11.363-5.84,23.609-7.959,35.426-2.165,12.043-4.376,24.187-5.97,36.322-1.372,10.515-3.04,23.7,5.518,31.81,3.676,3.488,8.889,5.576,13.965,4.535,5.849-1.2,9.359-5.774,12.215-10.63,2.9-4.929,5.361-10.092,7.876-15.228,2.358-4.828,5.03-11.433,10.99-12.493,3.325-.592,7.01-0.275,10.418-0.275h69.982c5.592,0,9.783.335,13.182,5.251,3.556,5.154,5.8,11.212,8.7,16.738,4.808,9.175,11.865,20.942,24.144,15.646C222.167,188.9,223.678,176.388,222.784,165.828ZM74.649,112.744a10.678,10.678,0,1,1,10.722-10.671A10.694,10.694,0,0,1,74.649,112.744Zm38,19.336v3.038a1.507,1.507,0,0,1-1.511,1.5q-3.662-.013-7.323-0.009a0.561,0.561,0,0,0-.525.275,0.745,0.745,0,0,0-.1.349c0,2.428.009,4.865,0.009,7.3a1.5,1.5,0,0,1-1.5,1.5H95.6a1.5,1.5,0,0,1-1.5-1.5c0-2.432.009-4.869,0.009-7.3a0.751,0.751,0,0,0-.1-0.349,0.538,0.538,0,0,0-.516-0.275q-3.675,0-7.332.009a1.5,1.5,0,0,1-1.5-1.5v-6.081a1.5,1.5,0,0,1,1.5-1.491q3.661,0.006,7.332.009a0.693,0.693,0,0,0,.313-0.087,0.548,0.548,0,0,0,.3-0.537c0-2.437-.009-4.865-0.009-7.3a1.5,1.5,0,0,1,1.5-1.5q3.053,0.007,6.1,0a1.5,1.5,0,0,1,1.5,1.5c0,2.437-.009,4.865-0.009,7.3a0.62,0.62,0,0,0,.626.624q3.662-.007,7.323-0.009a1.5,1.5,0,0,1,1.511,1.491v3.043Zm40.4,10.68a10.678,10.678,0,1,1,10.713-10.68A10.7,10.7,0,0,1,153.05,142.76Zm11.3-33.679a7.013,7.013,0,1,1,7.038-7.012A7.025,7.025,0,0,1,164.353,109.082Zm14.887,12.833a7.011,7.011,0,1,1,7.038-7.008A7.024,7.024,0,0,1,179.24,121.914Zm0-25.669a7.013,7.013,0,1,1,7.038-7.013A7.025,7.025,0,0,1,179.24,96.245Zm14.877,12.837a7.013,7.013,0,1,1,7.038-7.012A7.017,7.017,0,0,1,194.117,109.082Z"/>
  <rect class="b" width="256" height="256"/>
</svg>
