<svg xmlns="http://www.w3.org/2000/svg" width="256" height="256" viewBox="0 0 256 256">
  <defs>
    <style>
      .a {
        fill: #8c8c8c;
      }

      .b {
        fill: none;
      }
    </style>
  </defs>
  <title>power-tb-icon</title>
  <g>
    <path class="a" d="M109.961,40H80.3A37.267,37.267,0,0,0,43,77.239V178.749A37.279,37.279,0,0,0,80.308,216h29.653a0.881,0.881,0,0,0,.881-0.88V40.88A0.881,0.881,0,0,0,109.961,40ZM76.918,67.978a15.568,15.568,0,1,1-15.6,15.571A15.581,15.581,0,0,1,76.918,67.978ZM61.956,146.595a7.04,7.04,0,1,1,7.051-7.034A7.048,7.048,0,0,1,61.956,146.595Zm14.956,14.933a7.04,7.04,0,1,1,7.057-7.04A7.044,7.044,0,0,1,76.912,161.527Zm0-29.873a7.04,7.04,0,1,1,7.057-7.04A7.044,7.044,0,0,1,76.912,131.655Zm14.963,14.934a7.035,7.035,0,1,1,7.045-7.029A7.044,7.044,0,0,1,91.875,146.589Z"/>
    <path class="a" d="M175.7,40H146.039a0.881,0.881,0,0,0-.881.88V215.12a0.881,0.881,0,0,0,.881.88h29.653A37.279,37.279,0,0,0,213,178.749V77.239A37.267,37.267,0,0,0,175.7,40Zm3.381,25.967a7.04,7.04,0,1,1-7.045,7.04A7.047,7.047,0,0,1,179.085,65.967Zm0,29.873a7.04,7.04,0,1,1-7.045,7.04A7.051,7.051,0,0,1,179.085,95.84Zm-22.007-7.887a7.051,7.051,0,1,1,7.051,7.034A7.05,7.05,0,0,1,157.078,87.953Zm22.007,71.564a15.571,15.571,0,1,1,15.6-15.571A15.583,15.583,0,0,1,179.085,159.517Zm14.963-64.536a7.035,7.035,0,1,1,7.045-7.029A7.044,7.044,0,0,1,194.048,94.981Z"/>
  </g>
  <rect class="b" width="256" height="256"/>
</svg>
