<svg xmlns="http://www.w3.org/2000/svg" width="256" height="256" viewBox="0 0 256 256">
  <defs>
    <style>
      .a {
        fill: none;
      }

      .b {
        fill: #737373;
      }
    </style>
  </defs>
  <title>software</title>
  <rect class="a" width="256" height="256"/>
  <g>
    <path class="b" d="M179.74,23.919H76.268A18.285,18.285,0,0,0,58,42.182V213.818a18.285,18.285,0,0,0,18.268,18.262H179.74A18.281,18.281,0,0,0,198,213.818V42.182A18.281,18.281,0,0,0,179.74,23.919Zm-51.56,199.734L109.873,209.97h36.4Zm53.6-27.7a8.337,8.337,0,0,1-8.327,8.328H82.688a8.337,8.337,0,0,1-8.327-8.328V50.848a8.326,8.326,0,0,1,8.327-8.307h24.017V38.57a1.787,1.787,0,0,1,1.893-1.634h38.933a1.8,1.8,0,0,1,1.914,1.634v3.971h24a8.326,8.326,0,0,1,8.327,8.307v145.1Z"/>
    <path class="b" d="M173.448,46.522H82.688a4.342,4.342,0,0,0-4.346,4.327V87.323h99.452V50.848A4.342,4.342,0,0,0,173.448,46.522Z"/>
    <path class="b" d="M78.342,195.952a4.352,4.352,0,0,0,4.346,4.348h90.76a4.352,4.352,0,0,0,4.346-4.348V178.788H78.342v17.164Z"/>
  </g>
</svg>
