<svg xmlns="http://www.w3.org/2000/svg" width="256" height="256" viewBox="0 0 256 256">
  <defs>
    <style>
      .a {
        fill: #3c3c3c;
      }
    </style>
  </defs>
  <title>system update</title>
  <g>
    <path class="a" d="M173.485,90.767,162.264,79.546a1.134,1.134,0,0,0-1.6,0L136.94,103.269V38H118.8v65.269L95.084,79.546a1.134,1.134,0,0,0-1.6,0L82.26,90.767a1.134,1.134,0,0,0,0,1.6l44.811,44.814a1.133,1.133,0,0,0,1.6,0l44.811-44.814A1.134,1.134,0,0,0,173.485,90.767Z"/>
    <path class="a" d="M228.4,124.692h-68l-14.436,14.437h55.2v77.434H54.837V139.128h54.942L95.343,124.692H27.573C14.4,124.692,3,135.532,3,148.906v57.8C3,220.081,14.4,231,27.573,231H228.4c13.174,0,24.6-10.362,24.6-23.736v-57.8C253,136.089,241.571,124.692,228.4,124.692ZM25.922,141.744a10.1,10.1,0,0,1,0,20.185,10.1,10.1,0,0,1,0-20.185Zm-6.157,45.088a3.975,3.975,0,0,1-4.416,0,3.981,3.981,0,0,1,0-6.627,3.972,3.972,0,0,1,4.416,0,3.98,3.98,0,0,1,0,6.627Zm9.468,7.26a3.983,3.983,0,1,1,0-4.417A3.957,3.957,0,0,1,29.232,194.093Zm0-16.731a3.983,3.983,0,1,1,0-4.417A3.959,3.959,0,0,1,29.232,177.361Zm7.262,9.471a3.978,3.978,0,0,1-4.416,0,3.981,3.981,0,0,1,0-6.628,3.973,3.973,0,0,1,4.416,0,3.981,3.981,0,0,1,0,6.628Zm190.241-43.313a3.984,3.984,0,1,1,0,4.417A3.959,3.959,0,0,1,226.736,143.519Zm6.621,21.148a3.983,3.983,0,1,1,0-4.417A3.958,3.958,0,0,1,233.357,164.667ZM217.7,154.095a3.962,3.962,0,0,1,1.775-3.315,3.976,3.976,0,0,1,4.417,0,3.98,3.98,0,0,1,0,6.628,3.976,3.976,0,0,1-4.417,0A3.962,3.962,0,0,1,217.7,154.095Zm12.348,41.774a10.1,10.1,0,1,1,9.771-10.092A9.936,9.936,0,0,1,230.047,195.868Zm10.573-38.461a3.973,3.973,0,0,1-4.417,0,3.981,3.981,0,0,1,0-6.627,3.976,3.976,0,0,1,4.417,0,3.981,3.981,0,0,1,0,6.627Z"/>
  </g>
</svg>
