<svg xmlns="http://www.w3.org/2000/svg" width="256" height="256" viewBox="0 0 256 256">
  <defs>
    <style>
      .a {
        fill: none;
      }

      .b {
        fill: #737373;
      }
    </style>
  </defs>
  <title>table</title>
  <rect class="a" width="256" height="256"/>
  <path class="b" d="M218.657,48.657L207.343,37.343a1,1,0,0,0-1.414,0L128,115.271,50.071,37.343a1,1,0,0,0-1.414,0L37.343,48.657a1,1,0,0,0,0,1.414L115.271,128,37.343,205.929a1,1,0,0,0,0,1.414l11.314,11.314a1,1,0,0,0,1.414,0L128,140.729l77.929,77.929a1,1,0,0,0,1.414,0l11.314-11.314a1,1,0,0,0,0-1.414L140.729,128l77.929-77.929A1,1,0,0,0,218.657,48.657Z"/>
</svg>
