<svg xmlns="http://www.w3.org/2000/svg" width="280" height="280" viewBox="0 0 280 280">
  <defs>
    <style>
      .a {
        fill: none;
      }

      .b {
        fill: #FFF;
      }
    </style>
  </defs>
  <title>topアイコン</title>
  <rect class="a" width="280" height="280"/>
  <path class="b" d="M140,39.424A100.576,100.576,0,1,0,240.576,140,100.69,100.69,0,0,0,140,39.424Zm0,176.247A75.757,75.757,0,0,1,64.329,140a74.79,74.79,0,0,1,4.818-26.528l129.216,74.6A75.873,75.873,0,0,1,140,215.671Zm0-151.343A75.757,75.757,0,0,1,215.671,140a74.8,74.8,0,0,1-4.818,26.528L81.637,91.926A75.873,75.873,0,0,1,140,64.329Z"/>
</svg>
