<svg xmlns="http://www.w3.org/2000/svg" width="280" height="280" viewBox="0 0 280 280">
  <defs>
    <style>
      .a {
        fill: none;
      }

      .b {
        fill: #FFF;
      }
    </style>
  </defs>
  <title>topアイコン</title>
  <rect class="a" width="280" height="280"/>
  <g>
    <path class="b" d="M219.825,161.968a4.81,4.81,0,1,1-4.835,4.835A4.819,4.819,0,0,1,219.825,161.968Z"/>
    <path class="b" d="M121.109,73.231v128.6A10.319,10.319,0,0,0,131.4,212.123h30.865a25.721,25.721,0,1,0,51.441,0h30.865a10.319,10.319,0,0,0,10.288-10.288V73.231a10.319,10.319,0,0,0-10.288-10.288H131.4A10.319,10.319,0,0,0,121.109,73.231Zm20.576,44.291a3.842,3.842,0,0,1,3.858-3.807c1.029,0,1.595.772,2.263,1.338l1.286,1.286,8.179,8.179a4.746,4.746,0,0,0,4.167,1.132l11.163-3.035a4.492,4.492,0,0,0,3.035-3.035l3.035-11.162a4.6,4.6,0,0,0-1.132-4.167l-8.179-8.18-1.286-1.235c-0.617-.72-1.338-1.286-1.338-2.315a3.876,3.876,0,0,1,3.807-3.858h0.36a25.767,25.767,0,0,1,16.976,7.871,27.553,27.553,0,0,1,7,25.978l4.218,4.269,6.739,6.688,24.589,24.641a13.642,13.642,0,0,1-19.29,19.29l-24.64-24.641-6.688-6.688-4.218-4.217a27.614,27.614,0,0,1-26.029-7,25.764,25.764,0,0,1-7.871-16.976v-0.36Z"/>
    <path class="b" d="M28.515,147.821v54.013A10.319,10.319,0,0,0,38.8,212.123h5.144a25.721,25.721,0,1,0,51.441,0h5.144a10.319,10.319,0,0,0,10.288-10.288V109.24a10.319,10.319,0,0,0-10.288-10.288H65.81a5.735,5.735,0,0,0-4.681,2.469L29.441,144.735A10.842,10.842,0,0,0,28.515,147.821Zm20.474-2.572,21.657-30.865H95.389v30.865h-46.4Z"/>
  </g>
</svg>
