<svg xmlns="http://www.w3.org/2000/svg" width="280" height="280" viewBox="0 0 280 280">
  <defs>
    <style>
      .a {
        fill: none;
      }

      .b {
        fill: #FFF;
        fill-rule: evenodd;
      }
    </style>
  </defs>
  <title>topアイコン</title>
  <rect class="a" width="280" height="280"/>
  <path class="b" d="M163.486,213.658l-28.67-23.693a6.764,6.764,0,0,0-4.666-1.866,6.675,6.675,0,0,0-4.666,1.918l-6.221,6.221-1.97,1.97a7.385,7.385,0,0,1-10.473,0L92.562,183.95,78.3,169.693a7.385,7.385,0,0,1,0-10.473l1.97-1.97,6.221-6.221a6.583,6.583,0,0,0,1.918-4.666,6.764,6.764,0,0,0-1.866-4.666l-23.693-28.67a6.984,6.984,0,0,0-5.236-2.437,6.8,6.8,0,0,0-5.392,2.7l-0.415.57c-1.192,1.607-4.562,6.532-6.118,8.814C41.028,129.928,36.31,138.9,36.31,145.9c0,14.568,16.59,38.054,36.4,57.911,9.7,9.7,31.937,26.441,32.04,26.389,9.747,6.17,18.872,10.006,25.871,10.006s15.968-4.718,23.227-9.384c2.281-1.555,7.206-4.925,8.814-6.118l0.57-.415a6.877,6.877,0,0,0,2.7-5.392A6.984,6.984,0,0,0,163.486,213.658Zm-9.9-113.333L123.41,70.306a5.2,5.2,0,0,1,0-7.414,5.32,5.32,0,0,1,7.518,0l45,44.587a4.261,4.261,0,0,0,5.858,0l45.053-44.587a5.32,5.32,0,0,1,7.518,0,5.2,5.2,0,0,1,0,7.414l-30.174,30.018,30.174,29.811a5.2,5.2,0,0,1,0,7.414,5.32,5.32,0,0,1-7.518,0l-30.122-29.811-9.228,9.228a12.4,12.4,0,0,1-17.264-.052c-1.452-1.4-9.177-9.177-9.177-9.177l-30.122,29.811a5.32,5.32,0,0,1-7.518,0,5.2,5.2,0,0,1,0-7.414ZM124.446,53.56H233.321A10.4,10.4,0,0,1,243.69,63.929v72.583a10.4,10.4,0,0,1-10.369,10.369H124.446a10.4,10.4,0,0,1-10.369-10.369V63.929A10.4,10.4,0,0,1,124.446,53.56Z"/>
</svg>
