<svg xmlns="http://www.w3.org/2000/svg" width="280" height="280" viewBox="0 0 280 280">
  <defs>
    <style>
      .a {
        fill: none;
      }

      .b {
        fill: #FFF;
      }
    </style>
  </defs>
  <title>topアイコン</title>
  <rect class="a" width="280" height="280"/>
  <rect class="a" width="280" height="280"/>
  <g>
    <path class="b" d="M203.639,35.387A45.053,45.053,0,1,0,248.692,80.44,45.083,45.083,0,0,0,203.639,35.387Zm0,78.126A7.363,7.363,0,1,1,211,106.15,7.365,7.365,0,0,1,203.639,113.513Zm19.909-41.644a14.854,14.854,0,0,1-1.826,3.976,18.564,18.564,0,0,1-2.8,3.387A50.574,50.574,0,0,1,214.8,82.56l-2.091,2a8.829,8.829,0,0,0-1.355,1.826,6.463,6.463,0,0,0-.677,1.914,10.73,10.73,0,0,0-.206,2.3v2.3H196.777V89.569a16.657,16.657,0,0,1,.412-3.976,11.011,11.011,0,0,1,1.325-3.24,17.111,17.111,0,0,1,2.179-2.857,35.946,35.946,0,0,1,3-2.916l3.5-2.68a15.56,15.56,0,0,0,2.533-2.71A5.464,5.464,0,0,0,210.8,67.8a5.927,5.927,0,0,0-1.679-4.418,6.979,6.979,0,0,0-9.9.825,7.929,7.929,0,0,0-1.914,4.889H183.023a29.509,29.509,0,0,1,2.444-9.218,18.955,18.955,0,0,1,4.977-6.155,21.259,21.259,0,0,1,6.8-3.711,23.88,23.88,0,0,1,7.657-1.3,26.207,26.207,0,0,1,7.157,1.09,17.775,17.775,0,0,1,6.155,3.3,16.627,16.627,0,0,1,4.359,5.772,17.772,17.772,0,0,1,1.679,7.893A18.333,18.333,0,0,1,223.548,71.869Z"/>
    <path class="b" d="M212.756,143.672l-7-2.491c-1.59.159-3.18,0.212-4.77,0.212a58.27,58.27,0,0,1-58.3-58.3c0-1.59.053-3.18,0.212-4.77l-2.491-7a6.723,6.723,0,0,0-5.883-4.134H119.047a6.622,6.622,0,0,0-5.83,4.081l-3.233,9.011A18.666,18.666,0,0,1,99.488,91.358a18.9,18.9,0,0,1-15.265-.371l-8.639-4.134a6.749,6.749,0,0,0-7.049,1.219L57.563,99.044a6.749,6.749,0,0,0-1.219,7.049l4.081,8.533a19.284,19.284,0,0,1,.424,15.424,18.7,18.7,0,0,1-10.972,10.442l-9.063,3.18a6.711,6.711,0,0,0-4.134,5.83v15.53a6.723,6.723,0,0,0,4.134,5.883l8.957,3.18a18.666,18.666,0,0,1,11.078,10.495,18.9,18.9,0,0,1-.371,15.265l-4.134,8.64a6.748,6.748,0,0,0,1.219,7.049l10.972,10.972a6.749,6.749,0,0,0,7.049,1.219l8.639-4.134a18.786,18.786,0,0,1,25.759,10.707l3.18,8.957a6.723,6.723,0,0,0,5.883,4.134h15.477a6.723,6.723,0,0,0,5.883-4.134l3.18-8.957a18.666,18.666,0,0,1,10.495-11.078,18.9,18.9,0,0,1,15.265.371l8.639,4.134a6.748,6.748,0,0,0,7.049-1.219l10.972-10.972a6.748,6.748,0,0,0,1.219-7.049l-4.134-8.64A18.786,18.786,0,0,1,203.8,174.1l8.958-3.18a6.723,6.723,0,0,0,4.134-5.883V149.556A6.723,6.723,0,0,0,212.756,143.672Zm-62.6,37a33.056,33.056,0,1,1,0-46.749A33.11,33.11,0,0,1,150.159,180.669Z"/>
  </g>
</svg>
