<svg xmlns="http://www.w3.org/2000/svg" width="280" height="280" viewBox="0 0 280 280">
  <defs>
    <style>
      .a {
        fill: none;
      }

      .b {
        fill: #FFF;
      }
    </style>
  </defs>
  <title>parts</title>
  <rect class="a" width="280" height="280"/>
  <path class="b" d="M248.02,146.883V117.5a4.484,4.484,0,0,0-4.479-4.479h-28.2V78.545A14.425,14.425,0,0,0,201,64.066H169.332A14.424,14.424,0,0,0,155,78.545V99.729q-.489-.036-.969-.036H123.2a14.361,14.361,0,0,0-14.159-12.3H83.37a14.419,14.419,0,0,0-14.336,14.456l-.428,23.1L39.522,140a4.472,4.472,0,0,0-2.732,4.125v71.263a4.36,4.36,0,0,0,.349,1.666l.048.119a4.463,4.463,0,0,0,1.8,2.07,2.479,2.479,0,0,0,.438.2c.063.028.125.055.2.085a4.416,4.416,0,0,0,1.642.34,1.937,1.937,0,0,0,.277-.021H189.871a4.382,4.382,0,0,0,1.017-.125,2.826,2.826,0,0,0,.272-.08,4.26,4.26,0,0,0,.649-.252l.122-.043,53.977-31.261a4.458,4.458,0,0,0,2.285-3.913Zm-18.028-24.908-14.653,8.045v-8.045Zm-61.731-9.493c-.016-.131-.037-.26-.061-.388l-.025-.148c-.058-.373-.121-.743-.207-1.107-.039-.168-.086-.333-.133-.5l-.034-.119c-.094-.33-.193-.656-.31-.978-.075-.209-.157-.415-.242-.62-.128-.31-.267-.613-.415-.913-.1-.2-.2-.393-.3-.586-.166-.3-.349-.591-.536-.881l-.079-.123c-.087-.135-.174-.27-.269-.4-.223-.311-.464-.607-.715-.906l-.089-.11c-.075-.094-.151-.188-.233-.279-.22-.242-.437-.467-.654-.68v-25.2a5.458,5.458,0,0,1,5.379-5.521H201a5.458,5.458,0,0,1,5.38,5.521v55.947l-14.535,7.023H168.363V114.171A14.481,14.481,0,0,0,168.26,112.481Zm-53.9-10.3c-.282.192-.556.4-.818.6l-.247.206c-.18.149-.358.3-.524.454-.079.072-.155.145-.283.269-.151.146-.3.294-.443.444-.094.1-.185.2-.275.3-.14.154-.275.313-.449.523-.071.087-.144.175-.208.258-.132.168-.258.341-.386.52l-.211.3c-.138.2-.267.413-.435.688l-.105.171c-.167.29-.325.586-.47.88l-.105.229c-.108.233-.214.467-.309.7l-.132.344c-.077.2-.152.41-.217.61-.044.13-.083.263-.123.4-.058.2-.112.4-.166.606-.032.131-.064.263-.093.395-.046.207-.085.415-.133.686-.02.112-.039.224-.055.33-.033.23-.059.461-.082.693l-.033.341c-.025.345-.04.693-.04,1.043v27.343H77.991V101.867a5.458,5.458,0,0,1,5.379-5.521h25.669a5.458,5.458,0,0,1,5.379,5.521v.277Zm45.042,11.992v27.343H116.979V114.171A5.554,5.554,0,0,1,120.5,109a5.155,5.155,0,0,1,1.856-.355h31.669a5.218,5.218,0,0,1,2.935.909A5.565,5.565,0,0,1,159.406,114.171ZM68.569,141.515H56.11l12.62-6.892Z"/>
</svg>
