<svg xmlns="http://www.w3.org/2000/svg" width="256" height="256" viewBox="0 0 256 256">
  <defs>
    <style>
      .a {
        fill: #737373;
      }
    </style>
  </defs>
  <title>transfer</title>
  <g>
    <path class="a" d="M140.092,108.315c-2.776-2.311-17.2-12.295-26.849-16.61-21.6-9.658-33.421-9.759-33.421-9.759s13.745,10.763,25.671,22.16a189.97,189.97,0,0,1,20.949,23.431c4.062,5.883,7.5,12.2,8.08,14.685L114,156.486a.711.711,0,0,0,.23,1.274l57.6,14.7a.712.712,0,0,0,.886-.625l5.367-58.453a.712.712,0,0,0-1.116-.649l-19.879,13.814C154.026,122.754,148.788,115.555,140.092,108.315Z"/>
    <path class="a" d="M234.249,125.758H189.877l-1.063,11.576h23.574v62.09H94.927v-62.09h22.567c-.52-.808-1.064-1.637-1.654-2.491-.9-1.3-3.571-4.715-7.419-9.085H73.04c-10.576,0-19.726,8.692-19.726,19.416V191.52c0,10.724,9.15,19.48,19.726,19.48H234.249C244.825,211,254,202.691,254,191.967V145.621A20.189,20.189,0,0,0,234.249,125.758ZM71.715,139.431a8.1,8.1,0,1,1-7.844,8.092A7.971,7.971,0,0,1,71.715,139.431Zm-4.942,36.154a3.193,3.193,0,0,1-3.545,0,3.19,3.19,0,0,1,0-5.314,3.193,3.193,0,0,1,3.545,0,3.189,3.189,0,0,1,0,5.314Zm7.6,5.822a3.194,3.194,0,1,1,0-3.542A3.177,3.177,0,0,1,74.373,181.406Zm0-13.416a3.194,3.194,0,1,1,0-3.541A3.178,3.178,0,0,1,74.373,167.99Zm5.83,7.594a3.2,3.2,0,0,1-3.546,0,3.195,3.195,0,0,1,1.773-5.852,3.141,3.141,0,0,1,1.773.537,3.19,3.19,0,0,1,0,5.315Zm152.714-34.731a3.195,3.195,0,1,1,0,3.542A3.179,3.179,0,0,1,232.917,140.854Zm5.316,16.958a3.194,3.194,0,1,1,0-3.542A3.179,3.179,0,0,1,238.232,157.812Zm-12.57-8.478a3.177,3.177,0,0,1,1.425-2.658,3.194,3.194,0,0,1,3.546,0,3.19,3.19,0,0,1,0,5.315,3.194,3.194,0,0,1-3.546,0A3.176,3.176,0,0,1,225.662,149.334Zm9.912,33.5a8.1,8.1,0,1,1,7.844-8.092A7.971,7.971,0,0,1,235.574,182.83Zm8.488-30.839a3.191,3.191,0,0,1-3.546,0,3.19,3.19,0,0,1,0-5.314,3.194,3.194,0,0,1,3.546,0,3.19,3.19,0,0,1,0,5.314Z"/>
    <path class="a" d="M91.921,109.057H38.184V55.066h102.14V92.652c3.855,2.607,6.83,4.794,8.014,5.779a105.845,105.845,0,0,1,11.136,10.779l17.035-12.051V62.272A17.556,17.556,0,0,0,159.335,45H19.153A17.2,17.2,0,0,0,2,61.883v40.3a17.246,17.246,0,0,0,17.153,16.939h83.164C100.522,117.256,93.489,110.483,91.921,109.057Zm68.566-14.429a7.04,7.04,0,1,1,6.821-7.037A6.932,6.932,0,0,1,160.487,94.628Zm-2.311-24.835a2.779,2.779,0,1,1,0,3.08A2.763,2.763,0,0,1,158.177,69.793Zm6.608-6.6a2.778,2.778,0,0,1,3.083,0,2.774,2.774,0,0,1,0,4.621,2.776,2.776,0,0,1-3.083,0,2.774,2.774,0,0,1,0-4.621Zm-6.608-5.063a2.778,2.778,0,1,1,0,3.081A2.764,2.764,0,0,1,158.176,58.127Zm-5.069,5.063a2.777,2.777,0,0,1,3.083,0,2.774,2.774,0,0,1,0,4.621,2.777,2.777,0,0,1-3.083,0,2.774,2.774,0,0,1,0-4.621ZM18,56.89a7.04,7.04,0,0,1,0,14.073A7.04,7.04,0,0,1,18,56.89ZM13.7,88.328a2.777,2.777,0,0,1-3.083,0,2.774,2.774,0,0,1,0-4.621,2.775,2.775,0,0,1,3.083,0,2.773,2.773,0,0,1,0,4.621Zm6.608,5.062a2.778,2.778,0,1,1,0-3.08A2.762,2.762,0,0,1,20.311,93.39Zm0-11.666a2.778,2.778,0,1,1,0-3.08A2.764,2.764,0,0,1,20.311,81.724Zm5.07,6.6a2.781,2.781,0,0,1-3.083,0,2.774,2.774,0,0,1,0-4.621,2.778,2.778,0,0,1,3.083,0,2.774,2.774,0,0,1,0,4.621Z"/>
  </g>
</svg>
