<svg xmlns="http://www.w3.org/2000/svg" width="83.998" height="84.008" viewBox="0 0 83.998 84.008">
  <defs>
    <style>
      .a {
        fill: #e60012;
        fill-rule: evenodd;
      }
    </style>
  </defs>
  <title>faq</title>
  <path class="a" d="M76.858,0H7.14A7.156,7.156,0,0,0,0,7.182V62.117A7.156,7.156,0,0,0,7.14,69.3H48.61L62.767,83.082c1.674,1.629,3.043,1.051,3.043-1.284V69.3H76.858A7.156,7.156,0,0,0,84,62.117V7.182A7.156,7.156,0,0,0,76.858,0ZM42,58.8a5.25,5.25,0,1,1,5.25-5.25A5.252,5.252,0,0,1,42,58.8Zm5.019-17.976a7.648,7.648,0,0,0-.147,1.638V44.1H37.106V41.726a11.876,11.876,0,0,1,.294-2.835,7.851,7.851,0,0,1,.945-2.31A12.2,12.2,0,0,1,39.9,34.544a25.63,25.63,0,0,1,2.142-2.079l2.5-1.911a11.094,11.094,0,0,0,1.806-1.932,3.9,3.9,0,0,0,.756-2.415,4.226,4.226,0,0,0-1.2-3.15,4.976,4.976,0,0,0-7.056.588,5.654,5.654,0,0,0-1.365,3.486H27.3a21.041,21.041,0,0,1,1.743-6.573,13.515,13.515,0,0,1,3.549-4.389,15.157,15.157,0,0,1,4.851-2.646A17.027,17.027,0,0,1,42.9,12.6a18.687,18.687,0,0,1,5.1.777,12.675,12.675,0,0,1,4.389,2.352A11.855,11.855,0,0,1,55.5,19.845a12.671,12.671,0,0,1,1.2,5.628,13.073,13.073,0,0,1-.5,3.633,10.592,10.592,0,0,1-1.3,2.835A13.239,13.239,0,0,1,52.9,34.355a36.068,36.068,0,0,1-2.94,2.373l-1.491,1.428a6.3,6.3,0,0,0-.966,1.3A4.607,4.607,0,0,0,47.018,40.823Z"/>
</svg>
