<svg xmlns="http://www.w3.org/2000/svg" width="84.002" height="84" viewBox="0 0 84.002 84">
  <defs>
    <style>
      .a {
        fill: #b4b4b4;
      }
    </style>
  </defs>
  <title>hardware-3ds-b3b3b3</title>
  <path class="a" d="M84,8.4A8.408,8.408,0,0,0,75.605,0H8.4A8.411,8.411,0,0,0,0,8.4V41.267H84ZM62.3,31.563a1.865,1.865,0,0,1-1.842,1.884H23.542A1.865,1.865,0,0,1,21.7,31.563V12.931a1.867,1.867,0,0,1,1.843-1.884H60.457A1.866,1.866,0,0,1,62.3,12.931Z"/>
  <path class="a" d="M0,75.6A8.407,8.407,0,0,0,8.4,84H75.608A8.409,8.409,0,0,0,84,75.6V44.91H0ZM74.867,56.066a2.406,2.406,0,1,1-2.409,2.406,2.4,2.4,0,0,1,2.409-2.406m-4.873-4.873a2.408,2.408,0,1,1-2.412,2.41,2.407,2.407,0,0,1,2.412-2.41m0,9.743a2.408,2.408,0,1,1-2.412,2.409,2.409,2.409,0,0,1,2.412-2.409m-4.872-4.87a2.406,2.406,0,1,1-2.407,2.406,2.4,2.4,0,0,1,2.407-2.406M27.3,54.8a1.8,1.8,0,0,1,1.841-1.75H54.856A1.8,1.8,0,0,1,56.7,54.8V72.3a1.8,1.8,0,0,1-1.846,1.749H29.143A1.8,1.8,0,0,1,27.3,72.3ZM13.726,52.872a5.6,5.6,0,1,1-5.6,5.6,5.6,5.6,0,0,1,5.6-5.6"/>
</svg>
