<svg xmlns="http://www.w3.org/2000/svg" viewBox="0 0 44.969 48.94">
  <defs>
    <style>
      .cls-1 {
        fill: #b3b3b3;
        fill-rule: evenodd;
      }
    </style>
  </defs>
  <path id="img-hardware-switch-gray.svg" class="cls-1" d="M230.768,3024.97h-8.324c-5.736,0-10.386,4.12-10.386,9.86v28.31c0,5.74,4.652,10.77,10.39,10.77h8.32a0.247,0.247,0,0,0,.245-0.25v-48.44A0.247,0.247,0,0,0,230.768,3024.97Zm-9.2,7.28a4.34,4.34,0,1,1-4.345,4.34A4.34,4.34,0,0,1,221.566,3032.25Zm-4.167,21.92a1.96,1.96,0,1,1,1.964-1.96A1.964,1.964,0,0,1,217.4,3054.17Zm4.165,4.17a1.965,1.965,0,1,1,1.966-1.97A1.964,1.964,0,0,1,221.564,3058.34Zm0-8.33a1.965,1.965,0,1,1,1.966-1.97A1.964,1.964,0,0,1,221.564,3050.01Zm4.167,4.16a1.96,1.96,0,1,1,1.962-1.96A1.963,1.963,0,0,1,225.731,3054.17Zm20.91-29.2h-8.386a0.247,0.247,0,0,0-.245.25v48.44a0.247,0.247,0,0,0,.245.25h8.383c5.738,0,10.389-5.03,10.389-10.77v-28.31C257.027,3029.09,252.377,3024.97,246.641,3024.97Zm0.817,6.72a1.96,1.96,0,1,1-1.962,1.96A1.958,1.958,0,0,1,247.458,3031.69Zm0,8.33a1.96,1.96,0,1,1-1.962,1.96A1.964,1.964,0,0,1,247.458,3040.02Zm-6.129-2.2a1.964,1.964,0,1,1,1.964,1.96A1.966,1.966,0,0,1,241.329,3037.82Zm6.129,19.96a4.345,4.345,0,1,1,4.343-4.35A4.349,4.349,0,0,1,247.458,3057.78Zm4.166-18a1.965,1.965,0,1,1,1.962-1.96A1.963,1.963,0,0,1,251.624,3039.78Z" transform="translate(-212.062 -3024.97)"/>
</svg>
