<svg xmlns="http://www.w3.org/2000/svg" width="89" height="84" viewBox="0 0 89 84">
  <defs>
    <style>
      .a {
        fill: none;
      }

      .b {
        fill: #b3b3b3;
        fill-rule: evenodd;
      }
    </style>
  </defs>
  <title>inquiry-b3b3b3</title>
  <rect class="a" width="88" height="84"/>
  <path class="b" d="M27.127,41.071L6.408,20.484a3.56,3.56,0,0,1,0-5.084,3.656,3.656,0,0,1,5.162,0l30.9,30.578a2.929,2.929,0,0,0,4.023,0L77.43,15.4a3.656,3.656,0,0,1,5.162,0,3.56,3.56,0,0,1,0,5.084L61.873,41.071,82.592,61.516a3.56,3.56,0,0,1,0,5.084,3.656,3.656,0,0,1-5.162,0L56.746,46.156,50.41,52.484a8.52,8.52,0,0,1-11.855-.036c-1-.96-6.3-6.293-6.3-6.293L11.57,66.6a3.656,3.656,0,0,1-5.162,0,3.56,3.56,0,0,1,0-5.084ZM7.12,9H81.88A7.136,7.136,0,0,1,89,16.111V65.889A7.136,7.136,0,0,1,81.88,73H7.12A7.136,7.136,0,0,1,0,65.889V16.111A7.136,7.136,0,0,1,7.12,9Z"/>
</svg>
