<svg xmlns="http://www.w3.org/2000/svg" width="110" height="84" viewBox="0 0 110 84">
  <defs>
    <style>
      .a {
        fill: #b3b3b3;
      }
    </style>
  </defs>
  <title>network</title>
  <g>
    <path class="a" d="M108.323,26.676,106,24.359A72.946,72.946,0,0,0,55.033,3.806q-.891,0-1.786.021A72.366,72.366,0,0,0,1.672,26.676a4.145,4.145,0,0,0,0,5.979,3.777,3.777,0,0,0,2.875,1.157,4.506,4.506,0,0,0,3.116-1.4A65.622,65.622,0,0,1,53.507,12.35c.3,0,.606-.006.91-.006a65.668,65.668,0,0,1,45.848,18.234l2.078,2.077a4.149,4.149,0,0,0,5.979,0A4.135,4.135,0,0,0,108.323,26.676Z"/>
    <path class="a" d="M94.225,37.741A56.666,56.666,0,0,0,54.86,22.051c-.3,0-.609,0-.915.007A55.654,55.654,0,0,0,14.372,39.369a4.228,4.228,0,1,0,5.994,5.964A47.2,47.2,0,0,1,53.973,30.581c.291,0,.579-.008.869-.008a48.332,48.332,0,0,1,33.417,13.39l1.385,1.385a4.5,4.5,0,0,0,3.105,1.387,4.335,4.335,0,0,0,3.105-1.388,4.145,4.145,0,0,0,0-5.978Z"/>
    <path class="a" d="M81.992,51.129a38.465,38.465,0,0,0-26.9-10.85q-.457,0-.916.01a39.116,39.116,0,0,0-27.332,12,4.228,4.228,0,1,0,5.991,5.966,30.676,30.676,0,0,1,21.38-9.447q.406-.012.811-.012a30.638,30.638,0,0,1,21,8.547l.924.923a4.488,4.488,0,0,0,3.1,1.389A4.057,4.057,0,0,0,83.2,58.217a4.34,4.34,0,0,0-.049-5.924Z"/>
    <ellipse class="a" cx="55" cy="73.147" rx="10.858" ry="10.853"/>
  </g>
</svg>
