<?xml version="1.0" encoding="utf-8"?>
<!-- Generator: Adobe Illustrator 23.1.0, SVG Export Plug-In . SVG Version: 6.00 Build 0)  -->
<svg version="1.1" id="图层_1" xmlns="http://www.w3.org/2000/svg" xmlns:xlink="http://www.w3.org/1999/xlink" x="0px" y="0px"
	 viewBox="0 0 84 84" style="enable-background:new 0 0 84 84;" xml:space="preserve">
<style type="text/css">
	.st0{fill:#B4B4B4;}
</style>
<title>サポートトップ</title>
<g>
	<path class="st0" d="M74.9,5.7H9.1L5.7,78.3l72.7,0L74.9,5.7z M61.5,19.8c0,10.9-9,19.8-20,19.5c-10.4-0.3-19-9.5-19-19.9v-1.2
		c0-1.1,0.8-2.1,1.9-2.1c1.1-0.1,2.1,0.9,2.1,2v1.8C26.5,28.2,33.4,35,42,35c8.6,0,15.5-6.8,15.5-15.2h0v-1.6c0-1.1,0.8-2.1,1.9-2.1
		c1.1-0.1,2.1,0.9,2.1,2V19.8z"/>
</g>
</svg>
