<svg xmlns="http://www.w3.org/2000/svg" width="84" height="84" viewBox="0 0 84 84">
  <defs>
    <style>
      .a {
        fill: #e60012;
        fill-rule: evenodd;
      }
    </style>
  </defs>
  <title>サポートトップ</title>
  <path class="a" d="M69.72,31.92,55.86,28.14,52.08,14.28,60.252,6a3.622,3.622,0,0,0,1-2.486A3.482,3.482,0,0,0,57.8,0h-.3A23.425,23.425,0,0,0,42.087,7.14,25.006,25.006,0,0,0,35.769,30.73l-4.178,4.184L18.474,21.8,17.16,16.25,5.02,9.13,0,14.149,7.121,26.29,12.65,27.6,25.775,40.73,3.5,63A12.376,12.376,0,0,0,21,80.5L43.278,58.216l6.291,6.29a8.127,8.127,0,0,0,2.117,7.808l9.3,9.306a8.131,8.131,0,1,0,11.5-11.5l-9.3-9.3A8.124,8.124,0,0,0,55.376,58.7l-6.291-6.291,4.167-4.161A25.034,25.034,0,0,0,76.86,41.913,23.425,23.425,0,0,0,84,26.5v-.3a3.481,3.481,0,0,0-3.517-3.449,3.617,3.617,0,0,0-2.487,1ZM8.75,70.875a4.375,4.375,0,1,1,4.375,4.376A4.377,4.377,0,0,1,8.75,70.875Z"/>
</svg>
