<svg xmlns="http://www.w3.org/2000/svg" viewBox="0 0 18 18">
  <defs>
    <style>
      .cls-1 {
        fill: #b3b3b3;
        fill-rule: evenodd;
      }
    </style>
  </defs>
  <path id="icon-search.svg" class="cls-1" d="M178.125,3694.08a3.972,3.972,0,0,1,3.987-3.96,4.283,4.283,0,0,1,4.164,4.14,3.972,3.972,0,0,1-3.987,3.96A4.284,4.284,0,0,1,178.125,3694.08Zm14.58,8.16-4.332-4.3a7,7,0,0,0,1.03-3.66,7.445,7.445,0,0,0-7.312-7.26,7.065,7.065,0,0,0-7.092,7.04,7.445,7.445,0,0,0,7.311,7.26,7.075,7.075,0,0,0,3.57-.96l4.356,4.33a1.084,1.084,0,0,0,1.543,0l0.88-.87A1.137,1.137,0,0,0,192.705,3702.24Z" transform="translate(-175 -3687.03)"/>
</svg>
